<mxfile host="app.diagrams.net" modified="2021-09-20T09:25:04.321Z" agent="5.0 (Windows NT 10.0; Win64; x64) AppleWebKit/537.36 (KHTML, like Gecko) Chrome/93.0.4577.82 Safari/537.36" etag="H0KUQedJL-9oorQRHZE7" version="15.2.9" type="github">
  <diagram id="C5RBs43oDa-KdzZeNtuy" name="Page-1">
    <mxGraphModel dx="782" dy="738" grid="1" gridSize="10" guides="1" tooltips="1" connect="1" arrows="1" fold="1" page="1" pageScale="1" pageWidth="827" pageHeight="1169" math="0" shadow="0">
      <root>
        <mxCell id="WIyWlLk6GJQsqaUBKTNV-0" />
        <mxCell id="WIyWlLk6GJQsqaUBKTNV-1" parent="WIyWlLk6GJQsqaUBKTNV-0" />
        <mxCell id="hc-UETBrFDIDBRgfmux3-2" value="" style="edgeStyle=orthogonalEdgeStyle;rounded=0;orthogonalLoop=1;jettySize=auto;html=1;" parent="WIyWlLk6GJQsqaUBKTNV-1" source="hc-UETBrFDIDBRgfmux3-0" target="hc-UETBrFDIDBRgfmux3-1" edge="1">
          <mxGeometry relative="1" as="geometry" />
        </mxCell>
        <mxCell id="hc-UETBrFDIDBRgfmux3-0" value="Start" style="ellipse;whiteSpace=wrap;html=1;" parent="WIyWlLk6GJQsqaUBKTNV-1" vertex="1">
          <mxGeometry x="354" y="40" width="120" height="80" as="geometry" />
        </mxCell>
        <mxCell id="hc-UETBrFDIDBRgfmux3-4" value="" style="edgeStyle=orthogonalEdgeStyle;rounded=0;orthogonalLoop=1;jettySize=auto;html=1;" parent="WIyWlLk6GJQsqaUBKTNV-1" source="hc-UETBrFDIDBRgfmux3-1" target="hc-UETBrFDIDBRgfmux3-3" edge="1">
          <mxGeometry relative="1" as="geometry" />
        </mxCell>
        <mxCell id="hc-UETBrFDIDBRgfmux3-1" value="Bin to dec&lt;br&gt;or&lt;br&gt;dec to bin" style="shape=parallelogram;html=1;strokeWidth=2;perimeter=parallelogramPerimeter;whiteSpace=wrap;rounded=1;arcSize=12;size=0.23;" parent="WIyWlLk6GJQsqaUBKTNV-1" vertex="1">
          <mxGeometry x="364" y="190" width="100" height="60" as="geometry" />
        </mxCell>
        <mxCell id="hc-UETBrFDIDBRgfmux3-6" value="Invalid input" style="edgeStyle=orthogonalEdgeStyle;rounded=0;orthogonalLoop=1;jettySize=auto;html=1;entryX=1;entryY=0.5;entryDx=0;entryDy=0;" parent="WIyWlLk6GJQsqaUBKTNV-1" source="hc-UETBrFDIDBRgfmux3-3" target="hc-UETBrFDIDBRgfmux3-1" edge="1">
          <mxGeometry relative="1" as="geometry">
            <mxPoint x="534" y="220" as="targetPoint" />
            <Array as="points">
              <mxPoint x="530" y="360" />
              <mxPoint x="530" y="220" />
            </Array>
          </mxGeometry>
        </mxCell>
        <mxCell id="hc-UETBrFDIDBRgfmux3-8" value="b2d" style="edgeStyle=orthogonalEdgeStyle;rounded=0;orthogonalLoop=1;jettySize=auto;html=1;" parent="WIyWlLk6GJQsqaUBKTNV-1" source="hc-UETBrFDIDBRgfmux3-3" edge="1">
          <mxGeometry relative="1" as="geometry">
            <mxPoint x="330" y="360" as="targetPoint" />
          </mxGeometry>
        </mxCell>
        <mxCell id="hc-UETBrFDIDBRgfmux3-14" value="d2b" style="edgeStyle=orthogonalEdgeStyle;rounded=0;orthogonalLoop=1;jettySize=auto;html=1;" parent="WIyWlLk6GJQsqaUBKTNV-1" source="hc-UETBrFDIDBRgfmux3-3" target="hc-UETBrFDIDBRgfmux3-13" edge="1">
          <mxGeometry relative="1" as="geometry" />
        </mxCell>
        <mxCell id="hc-UETBrFDIDBRgfmux3-3" value="Check user&lt;br&gt;choice" style="rhombus;whiteSpace=wrap;html=1;rounded=1;strokeWidth=2;arcSize=12;" parent="WIyWlLk6GJQsqaUBKTNV-1" vertex="1">
          <mxGeometry x="374" y="320" width="80" height="80" as="geometry" />
        </mxCell>
        <mxCell id="hc-UETBrFDIDBRgfmux3-16" value="" style="edgeStyle=orthogonalEdgeStyle;rounded=0;orthogonalLoop=1;jettySize=auto;html=1;" parent="WIyWlLk6GJQsqaUBKTNV-1" source="hc-UETBrFDIDBRgfmux3-11" target="hc-UETBrFDIDBRgfmux3-15" edge="1">
          <mxGeometry relative="1" as="geometry" />
        </mxCell>
        <mxCell id="hc-UETBrFDIDBRgfmux3-11" value="A" style="ellipse;whiteSpace=wrap;html=1;aspect=fixed;" parent="WIyWlLk6GJQsqaUBKTNV-1" vertex="1">
          <mxGeometry x="250" y="320" width="80" height="80" as="geometry" />
        </mxCell>
        <mxCell id="hc-UETBrFDIDBRgfmux3-17" value="" style="edgeStyle=orthogonalEdgeStyle;rounded=0;orthogonalLoop=1;jettySize=auto;html=1;" parent="WIyWlLk6GJQsqaUBKTNV-1" source="hc-UETBrFDIDBRgfmux3-13" target="hc-UETBrFDIDBRgfmux3-15" edge="1">
          <mxGeometry relative="1" as="geometry" />
        </mxCell>
        <mxCell id="hc-UETBrFDIDBRgfmux3-13" value="B" style="ellipse;whiteSpace=wrap;html=1;aspect=fixed;" parent="WIyWlLk6GJQsqaUBKTNV-1" vertex="1">
          <mxGeometry x="374" y="430" width="80" height="80" as="geometry" />
        </mxCell>
        <mxCell id="hc-UETBrFDIDBRgfmux3-19" value="Yes" style="edgeStyle=orthogonalEdgeStyle;rounded=0;orthogonalLoop=1;jettySize=auto;html=1;entryX=0;entryY=0.5;entryDx=0;entryDy=0;" parent="WIyWlLk6GJQsqaUBKTNV-1" source="hc-UETBrFDIDBRgfmux3-15" target="hc-UETBrFDIDBRgfmux3-1" edge="1">
          <mxGeometry relative="1" as="geometry">
            <mxPoint x="170" y="230" as="targetPoint" />
            <Array as="points">
              <mxPoint x="170" y="470" />
              <mxPoint x="170" y="220" />
            </Array>
          </mxGeometry>
        </mxCell>
        <mxCell id="hc-UETBrFDIDBRgfmux3-22" value="No" style="edgeStyle=orthogonalEdgeStyle;rounded=0;orthogonalLoop=1;jettySize=auto;html=1;entryX=0;entryY=0.5;entryDx=0;entryDy=0;" parent="WIyWlLk6GJQsqaUBKTNV-1" source="hc-UETBrFDIDBRgfmux3-15" target="hc-UETBrFDIDBRgfmux3-20" edge="1">
          <mxGeometry relative="1" as="geometry">
            <mxPoint x="290" y="600" as="targetPoint" />
            <Array as="points">
              <mxPoint x="290" y="600" />
            </Array>
          </mxGeometry>
        </mxCell>
        <mxCell id="hc-UETBrFDIDBRgfmux3-15" value="Go again?" style="strokeWidth=2;html=1;shape=mxgraph.flowchart.decision;whiteSpace=wrap;" parent="WIyWlLk6GJQsqaUBKTNV-1" vertex="1">
          <mxGeometry x="240" y="420" width="100" height="100" as="geometry" />
        </mxCell>
        <mxCell id="hc-UETBrFDIDBRgfmux3-20" value="End" style="ellipse;whiteSpace=wrap;html=1;" parent="WIyWlLk6GJQsqaUBKTNV-1" vertex="1">
          <mxGeometry x="354" y="560" width="120" height="80" as="geometry" />
        </mxCell>
        <mxCell id="hc-UETBrFDIDBRgfmux3-25" value="" style="edgeStyle=orthogonalEdgeStyle;rounded=0;orthogonalLoop=1;jettySize=auto;html=1;" parent="WIyWlLk6GJQsqaUBKTNV-1" source="hc-UETBrFDIDBRgfmux3-23" target="hc-UETBrFDIDBRgfmux3-24" edge="1">
          <mxGeometry relative="1" as="geometry" />
        </mxCell>
        <mxCell id="hc-UETBrFDIDBRgfmux3-23" value="A" style="ellipse;whiteSpace=wrap;html=1;aspect=fixed;" parent="WIyWlLk6GJQsqaUBKTNV-1" vertex="1">
          <mxGeometry x="160" y="710" width="80" height="80" as="geometry" />
        </mxCell>
        <mxCell id="hc-UETBrFDIDBRgfmux3-27" value="" style="edgeStyle=orthogonalEdgeStyle;rounded=0;orthogonalLoop=1;jettySize=auto;html=1;" parent="WIyWlLk6GJQsqaUBKTNV-1" source="hc-UETBrFDIDBRgfmux3-24" target="hc-UETBrFDIDBRgfmux3-26" edge="1">
          <mxGeometry relative="1" as="geometry" />
        </mxCell>
        <mxCell id="hc-UETBrFDIDBRgfmux3-24" value="i=0&lt;br&gt;dec=0" style="shape=parallelogram;html=1;strokeWidth=2;perimeter=parallelogramPerimeter;whiteSpace=wrap;rounded=1;arcSize=12;size=0.23;" parent="WIyWlLk6GJQsqaUBKTNV-1" vertex="1">
          <mxGeometry x="150" y="850" width="100" height="60" as="geometry" />
        </mxCell>
        <mxCell id="hc-UETBrFDIDBRgfmux3-29" value="No" style="edgeStyle=orthogonalEdgeStyle;rounded=0;orthogonalLoop=1;jettySize=auto;html=1;" parent="WIyWlLk6GJQsqaUBKTNV-1" source="hc-UETBrFDIDBRgfmux3-26" target="hc-UETBrFDIDBRgfmux3-28" edge="1">
          <mxGeometry relative="1" as="geometry" />
        </mxCell>
        <mxCell id="OihDdDdEbIL7zG63djY9-3" value="" style="edgeStyle=orthogonalEdgeStyle;rounded=0;orthogonalLoop=1;jettySize=auto;html=1;" edge="1" parent="WIyWlLk6GJQsqaUBKTNV-1" source="hc-UETBrFDIDBRgfmux3-26" target="OihDdDdEbIL7zG63djY9-2">
          <mxGeometry relative="1" as="geometry" />
        </mxCell>
        <mxCell id="hc-UETBrFDIDBRgfmux3-26" value="Is i&amp;lt;len(bin)" style="rhombus;whiteSpace=wrap;html=1;rounded=1;strokeWidth=2;arcSize=12;" parent="WIyWlLk6GJQsqaUBKTNV-1" vertex="1">
          <mxGeometry x="160" y="980" width="80" height="80" as="geometry" />
        </mxCell>
        <mxCell id="hc-UETBrFDIDBRgfmux3-28" value="Return dec" style="ellipse;whiteSpace=wrap;html=1;" parent="WIyWlLk6GJQsqaUBKTNV-1" vertex="1">
          <mxGeometry x="140" y="1140" width="120" height="80" as="geometry" />
        </mxCell>
        <mxCell id="OihDdDdEbIL7zG63djY9-5" value="no" style="edgeStyle=orthogonalEdgeStyle;rounded=0;orthogonalLoop=1;jettySize=auto;html=1;" edge="1" parent="WIyWlLk6GJQsqaUBKTNV-1" source="OihDdDdEbIL7zG63djY9-2" target="OihDdDdEbIL7zG63djY9-4">
          <mxGeometry relative="1" as="geometry" />
        </mxCell>
        <mxCell id="OihDdDdEbIL7zG63djY9-9" value="yes" style="edgeStyle=orthogonalEdgeStyle;rounded=0;orthogonalLoop=1;jettySize=auto;html=1;" edge="1" parent="WIyWlLk6GJQsqaUBKTNV-1" source="OihDdDdEbIL7zG63djY9-2" target="OihDdDdEbIL7zG63djY9-8">
          <mxGeometry relative="1" as="geometry" />
        </mxCell>
        <mxCell id="OihDdDdEbIL7zG63djY9-2" value="is bin[i]&lt;br&gt;equal to&lt;br&gt;1" style="rhombus;whiteSpace=wrap;html=1;rounded=1;strokeWidth=2;arcSize=12;" vertex="1" parent="WIyWlLk6GJQsqaUBKTNV-1">
          <mxGeometry x="320" y="980" width="80" height="80" as="geometry" />
        </mxCell>
        <mxCell id="OihDdDdEbIL7zG63djY9-7" value="" style="edgeStyle=orthogonalEdgeStyle;rounded=0;orthogonalLoop=1;jettySize=auto;html=1;entryX=0.5;entryY=0;entryDx=0;entryDy=0;" edge="1" parent="WIyWlLk6GJQsqaUBKTNV-1" source="OihDdDdEbIL7zG63djY9-4" target="hc-UETBrFDIDBRgfmux3-26">
          <mxGeometry relative="1" as="geometry">
            <Array as="points">
              <mxPoint x="330" y="980" />
            </Array>
          </mxGeometry>
        </mxCell>
        <mxCell id="OihDdDdEbIL7zG63djY9-4" value="i += 1" style="shape=parallelogram;perimeter=parallelogramPerimeter;whiteSpace=wrap;html=1;fixedSize=1;rounded=1;strokeWidth=2;arcSize=12;" vertex="1" parent="WIyWlLk6GJQsqaUBKTNV-1">
          <mxGeometry x="300" y="850" width="120" height="60" as="geometry" />
        </mxCell>
        <mxCell id="OihDdDdEbIL7zG63djY9-11" value="" style="edgeStyle=orthogonalEdgeStyle;rounded=0;orthogonalLoop=1;jettySize=auto;html=1;entryX=1;entryY=0.5;entryDx=0;entryDy=0;" edge="1" parent="WIyWlLk6GJQsqaUBKTNV-1" source="OihDdDdEbIL7zG63djY9-8" target="OihDdDdEbIL7zG63djY9-4">
          <mxGeometry relative="1" as="geometry">
            <mxPoint x="520" y="910" as="targetPoint" />
            <Array as="points">
              <mxPoint x="520" y="880" />
            </Array>
          </mxGeometry>
        </mxCell>
        <mxCell id="OihDdDdEbIL7zG63djY9-8" value="dec += 2**i" style="shape=parallelogram;perimeter=parallelogramPerimeter;whiteSpace=wrap;html=1;fixedSize=1;rounded=1;strokeWidth=2;arcSize=12;" vertex="1" parent="WIyWlLk6GJQsqaUBKTNV-1">
          <mxGeometry x="460" y="990" width="120" height="60" as="geometry" />
        </mxCell>
      </root>
    </mxGraphModel>
  </diagram>
</mxfile>
